<?xml version="1.0" standalone="no"?>
<!DOCTYPE svg PUBLIC "-//W3C//DTD SVG 20010904//EN"
 "http://www.w3.org/TR/2001/REC-SVG-20010904/DTD/svg10.dtd">
<svg version="1.0" xmlns="http://www.w3.org/2000/svg"
 width="277.000000pt" height="277.000000pt" viewBox="0 0 277.000000 277.000000"
 preserveAspectRatio="xMidYMid meet">
<metadata>
Created by potrace 1.14, written by Peter Selinger 2001-2017
</metadata>
<g transform="translate(0.000000,277.000000) scale(0.100000,-0.100000)"
fill="#000000" stroke="none">
<path d="M1275 2465 c-33 -14 -69 -29 -80 -35 -11 -5 -153 -64 -315 -130 -162
-67 -308 -128 -325 -135 -53 -24 -188 -77 -250 -97 -94 -31 -294 -117 -296
-127 0 -3 -1 -361 -2 -795 -2 -523 1 -796 8 -810 20 -40 62 -43 725 -46 1185
-4 1875 -3 1932 4 102 13 93 -63 93 842 0 434 -4 795 -8 802 -9 14 -52 34
-197 89 -292 113 -378 147 -415 163 -22 10 -188 80 -370 156 -376 157 -397
162 -500 119z"/>
</g>
</svg>
